<svg width="15" height="15" viewBox="0 0 15 15" fill="none" xmlns="http://www.w3.org/2000/svg">
<path d="M4.86035 11.9182C4.86035 11.9768 4.79297 12.0237 4.70801 12.0237C4.61133 12.0325 4.54395 11.9856 4.54395 11.9182C4.54395 11.8596 4.61133 11.8127 4.69629 11.8127C4.78418 11.804 4.86035 11.8508 4.86035 11.9182ZM3.94922 11.7864C3.92871 11.845 3.9873 11.9124 4.0752 11.9299C4.15137 11.9592 4.23926 11.9299 4.25684 11.8713C4.27441 11.8127 4.21875 11.7454 4.13086 11.719C4.05469 11.6985 3.96973 11.7278 3.94922 11.7864ZM5.24414 11.7366C5.15918 11.7571 5.10059 11.8127 5.10938 11.8801C5.11816 11.9387 5.19434 11.9768 5.28223 11.9563C5.36719 11.9358 5.42578 11.8801 5.41699 11.8215C5.4082 11.7659 5.3291 11.7278 5.24414 11.7366ZM7.17188 0.51001C3.1084 0.51001 0 3.59497 0 7.65845C0 10.9075 2.04492 13.6877 4.96582 14.6663C5.34082 14.7336 5.47266 14.5022 5.47266 14.3118C5.47266 14.1301 5.46387 13.1282 5.46387 12.5129C5.46387 12.5129 3.41309 12.9524 2.98242 11.6399C2.98242 11.6399 2.64844 10.7874 2.16797 10.5676C2.16797 10.5676 1.49707 10.1077 2.21484 10.1165C2.21484 10.1165 2.94434 10.175 3.3457 10.8723C3.9873 12.0032 5.0625 11.678 5.48145 11.4846C5.54883 11.0159 5.73926 10.6907 5.9502 10.4973C4.3125 10.3157 2.66016 10.0784 2.66016 7.26001C2.66016 6.45435 2.88281 6.05005 3.35156 5.53442C3.27539 5.34399 3.02637 4.55884 3.42773 3.54517C4.04004 3.35474 5.44922 4.33618 5.44922 4.33618C6.03516 4.17212 6.66504 4.08716 7.28906 4.08716C7.91309 4.08716 8.54297 4.17212 9.12891 4.33618C9.12891 4.33618 10.5381 3.35181 11.1504 3.54517C11.5518 4.56177 11.3027 5.34399 11.2266 5.53442C11.6953 6.05298 11.9824 6.45728 11.9824 7.26001C11.9824 10.0872 10.2568 10.3127 8.61914 10.4973C8.88867 10.7288 9.11719 11.1682 9.11719 11.8567C9.11719 12.844 9.1084 14.0657 9.1084 14.3059C9.1084 14.4963 9.24316 14.7278 9.61523 14.6604C12.5449 13.6877 14.5312 10.9075 14.5312 7.65845C14.5312 3.59497 11.2354 0.51001 7.17188 0.51001ZM2.84766 10.6145C2.80957 10.6438 2.81836 10.7112 2.86816 10.7668C2.91504 10.8137 2.98242 10.8342 3.02051 10.7961C3.05859 10.7668 3.0498 10.6995 3 10.6438C2.95312 10.5969 2.88574 10.5764 2.84766 10.6145ZM2.53125 10.3772C2.51074 10.4153 2.54004 10.4622 2.59863 10.4915C2.64551 10.5208 2.7041 10.512 2.72461 10.4709C2.74512 10.4329 2.71582 10.386 2.65723 10.3567C2.59863 10.3391 2.55176 10.3479 2.53125 10.3772ZM3.48047 11.4202C3.43359 11.4583 3.45117 11.5461 3.51855 11.6018C3.58594 11.6692 3.6709 11.678 3.70898 11.6311C3.74707 11.593 3.72949 11.5051 3.6709 11.4495C3.60645 11.3821 3.51855 11.3733 3.48047 11.4202ZM3.14648 10.9895C3.09961 11.0188 3.09961 11.095 3.14648 11.1624C3.19336 11.2297 3.27246 11.259 3.31055 11.2297C3.35742 11.1917 3.35742 11.1155 3.31055 11.0481C3.26953 10.9807 3.19336 10.9514 3.14648 10.9895Z" fill="white"/>
</svg>
