<svg width="15" height="16" viewBox="0 0 15 16" fill="none" xmlns="http://www.w3.org/2000/svg">
<g clip-path="url(#clip0_6_218)">
<path d="M3.87539 13.635H1.1543V4.87227H3.87539V13.635ZM2.51338 3.67695C1.64326 3.67695 0.9375 2.95625 0.9375 2.08613C0.9375 1.66818 1.10353 1.26735 1.39906 0.971818C1.6946 0.676284 2.09543 0.510254 2.51338 0.510254C2.93133 0.510254 3.33216 0.676284 3.62769 0.971818C3.92323 1.26735 4.08926 1.66818 4.08926 2.08613C4.08926 2.95625 3.3832 3.67695 2.51338 3.67695ZM14.0596 13.635H11.3443V9.36934C11.3443 8.35273 11.3238 7.04902 9.92959 7.04902C8.51484 7.04902 8.29805 8.15352 8.29805 9.29609V13.635H5.57988V4.87227H8.18965V6.06758H8.22773C8.59102 5.3791 9.47842 4.65254 10.8023 4.65254C13.5562 4.65254 14.0625 6.46602 14.0625 8.82148V13.635H14.0596Z" fill="white"/>
</g>
<defs>
<clipPath id="clip0_6_218">
<rect width="15" height="15" fill="white" transform="translate(0 0.51001)"/>
</clipPath>
</defs>
</svg>
